<?xml version="1.0"?>
<mxfile host="www.draw.io" modified="2020-07-24T11:26:03.176Z" agent="5.0 (X11; Linux x86_64) AppleWebKit/537.36 (KHTML, like Gecko) Chrome/84.0.4147.89 Safari/537.36" etag="SOhUuvMCLRJLDeu5lSW0" version="13.5.1" pages="6">
  <diagram id="953c7T_l1LGNBZ1lFAYy" name="Directions">
    <mxGraphModel dx="2" dy="1" grid="1" gridSize="10" guides="1" tooltips="1" connect="1" arrows="1" fold="1" page="1" pageScale="1" pageWidth="850" pageHeight="1100" math="1" shadow="0">
      <root>
        <mxCell id="KOuEPaCOk-VeOU2HSNAt-0"/>
        <mxCell id="KOuEPaCOk-VeOU2HSNAt-1" parent="KOuEPaCOk-VeOU2HSNAt-0"/>
        <mxCell id="RFDyQc_cgSSzowEOWLye-2" value="A&lt;br&gt;&lt;div&gt;&lt;br&gt;&lt;/div&gt;&lt;div&gt;&lt;br&gt;&lt;/div&gt;" style="whiteSpace=wrap;html=1;rounded=0;shadow=0;strokeWidth=1;fillColor=#6d8764;fontSize=24;align=right;strokeColor=#3A5431;" parent="KOuEPaCOk-VeOU2HSNAt-1" vertex="1">
          <mxGeometry x="225" y="230" width="20" height="20" as="geometry"/>
        </mxCell>
        <mxCell id="RFDyQc_cgSSzowEOWLye-9" value="" style="endArrow=none;html=1;strokeWidth=3;fillColor=#76608a;strokeColor=#B3B3B3;" parent="KOuEPaCOk-VeOU2HSNAt-1" edge="1">
          <mxGeometry width="50" height="50" relative="1" as="geometry">
            <mxPoint x="375" y="510" as="sourcePoint"/>
            <mxPoint x="345" y="180" as="targetPoint"/>
          </mxGeometry>
        </mxCell>
        <mxCell id="RFDyQc_cgSSzowEOWLye-11" value="" style="endArrow=none;html=1;strokeWidth=3;fillColor=#76608a;strokeColor=#B3B3B3;" parent="KOuEPaCOk-VeOU2HSNAt-1" source="RFDyQc_cgSSzowEOWLye-24" edge="1">
          <mxGeometry width="50" height="50" relative="1" as="geometry">
            <mxPoint x="425" y="200" as="sourcePoint"/>
            <mxPoint x="105" y="120" as="targetPoint"/>
          </mxGeometry>
        </mxCell>
        <mxCell id="RFDyQc_cgSSzowEOWLye-13" value="" style="ellipse;whiteSpace=wrap;html=1;aspect=fixed;fillColor=#d5e8d4;strokeColor=#82b366;rotation=5;" parent="KOuEPaCOk-VeOU2HSNAt-1" vertex="1">
          <mxGeometry x="255" y="150" width="20.42" height="20.42" as="geometry"/>
        </mxCell>
        <mxCell id="RFDyQc_cgSSzowEOWLye-16" value="&lt;font style=&quot;font-size: 16px&quot;&gt;`c_1^A`&lt;/font&gt;" style="text;html=1;strokeColor=none;fillColor=none;align=center;verticalAlign=middle;whiteSpace=wrap;rounded=0;fontColor=#000000;" parent="KOuEPaCOk-VeOU2HSNAt-1" vertex="1">
          <mxGeometry x="235.42000000000002" y="120" width="40" height="20" as="geometry"/>
        </mxCell>
        <mxCell id="RFDyQc_cgSSzowEOWLye-17" value="&lt;font style=&quot;font-size: 16px&quot;&gt;`c_2^A`&lt;/font&gt;" style="text;html=1;strokeColor=none;fillColor=none;align=center;verticalAlign=middle;whiteSpace=wrap;rounded=0;fontColor=#000000;" parent="KOuEPaCOk-VeOU2HSNAt-1" vertex="1">
          <mxGeometry x="315.49" y="249.99999999999997" width="40" height="20" as="geometry"/>
        </mxCell>
        <mxCell id="RFDyQc_cgSSzowEOWLye-18" style="edgeStyle=orthogonalEdgeStyle;rounded=0;orthogonalLoop=1;jettySize=auto;html=1;exitX=0.5;exitY=1;exitDx=0;exitDy=0;strokeColor=#B3B3B3;strokeWidth=3;fontColor=#000000;" parent="KOuEPaCOk-VeOU2HSNAt-1" source="RFDyQc_cgSSzowEOWLye-16" target="RFDyQc_cgSSzowEOWLye-16" edge="1">
          <mxGeometry relative="1" as="geometry"/>
        </mxCell>
        <mxCell id="RFDyQc_cgSSzowEOWLye-24" value="" style="ellipse;whiteSpace=wrap;html=1;aspect=fixed;fillColor=#1ba1e2;strokeColor=#006EAF;rotation=5;fontColor=#ffffff;" parent="KOuEPaCOk-VeOU2HSNAt-1" vertex="1">
          <mxGeometry x="335.47" y="170.42" width="20" height="20" as="geometry"/>
        </mxCell>
        <mxCell id="RFDyQc_cgSSzowEOWLye-27" value="" style="ellipse;whiteSpace=wrap;html=1;aspect=fixed;fillColor=#1ba1e2;strokeColor=#006EAF;rotation=5;fontColor=#ffffff;" parent="KOuEPaCOk-VeOU2HSNAt-1" vertex="1">
          <mxGeometry x="364.99999999999994" y="500" width="20" height="20" as="geometry"/>
        </mxCell>
        <mxCell id="RFDyQc_cgSSzowEOWLye-31" value="" style="ellipse;whiteSpace=wrap;html=1;aspect=fixed;fillColor=#1ba1e2;strokeColor=#006EAF;rotation=5;fontColor=#ffffff;" parent="KOuEPaCOk-VeOU2HSNAt-1" vertex="1">
          <mxGeometry x="94.99999999999994" y="110" width="20" height="20" as="geometry"/>
        </mxCell>
        <mxCell id="RFDyQc_cgSSzowEOWLye-12" value="" style="ellipse;whiteSpace=wrap;html=1;aspect=fixed;fillColor=#d5e8d4;strokeColor=#82b366;rotation=5;" parent="KOuEPaCOk-VeOU2HSNAt-1" vertex="1">
          <mxGeometry x="335.49" y="219.98000000000002" width="20" height="20" as="geometry"/>
        </mxCell>
        <mxCell id="aHJcTRQOH6mIRuyvJkER-2" value="&lt;font style=&quot;font-size: 20px&quot;&gt;Both directions&lt;/font&gt;" style="text;html=1;strokeColor=none;fillColor=none;align=center;verticalAlign=middle;whiteSpace=wrap;rounded=0;" parent="KOuEPaCOk-VeOU2HSNAt-1" vertex="1">
          <mxGeometry x="152.5" y="40" width="165" height="20" as="geometry"/>
        </mxCell>
        <mxCell id="aHJcTRQOH6mIRuyvJkER-14" value="&lt;font style=&quot;font-size: 20px&quot;&gt;Single direction&lt;/font&gt;" style="text;html=1;align=center;verticalAlign=middle;whiteSpace=wrap;rounded=0;strokeWidth=1;perimeterSpacing=0;" parent="KOuEPaCOk-VeOU2HSNAt-1" vertex="1">
          <mxGeometry x="520" y="40" width="160" height="20" as="geometry"/>
        </mxCell>
        <mxCell id="aHJcTRQOH6mIRuyvJkER-16" value="&lt;div&gt;`n_0^{c_1^A}`&lt;/div&gt;" style="text;html=1;strokeColor=none;fillColor=none;align=center;verticalAlign=middle;whiteSpace=wrap;rounded=0;" parent="KOuEPaCOk-VeOU2HSNAt-1" vertex="1">
          <mxGeometry x="95" y="90" width="40" height="20" as="geometry"/>
        </mxCell>
        <mxCell id="aHJcTRQOH6mIRuyvJkER-17" value="A&lt;br&gt;&lt;div&gt;&lt;br&gt;&lt;/div&gt;&lt;div&gt;&lt;br&gt;&lt;/div&gt;" style="whiteSpace=wrap;html=1;rounded=0;shadow=0;strokeWidth=1;fillColor=#6d8764;fontSize=24;align=right;strokeColor=#3A5431;" parent="KOuEPaCOk-VeOU2HSNAt-1" vertex="1">
          <mxGeometry x="590" y="230" width="20" height="20" as="geometry"/>
        </mxCell>
        <mxCell id="aHJcTRQOH6mIRuyvJkER-18" value="" style="endArrow=none;html=1;strokeWidth=3;fillColor=#76608a;strokeColor=#B3B3B3;" parent="KOuEPaCOk-VeOU2HSNAt-1" edge="1">
          <mxGeometry width="50" height="50" relative="1" as="geometry">
            <mxPoint x="740" y="510" as="sourcePoint"/>
            <mxPoint x="710" y="180" as="targetPoint"/>
          </mxGeometry>
        </mxCell>
        <mxCell id="aHJcTRQOH6mIRuyvJkER-19" value="" style="endArrow=none;html=1;strokeWidth=3;fillColor=#76608a;strokeColor=#B3B3B3;" parent="KOuEPaCOk-VeOU2HSNAt-1" source="aHJcTRQOH6mIRuyvJkER-24" edge="1">
          <mxGeometry width="50" height="50" relative="1" as="geometry">
            <mxPoint x="790" y="200" as="sourcePoint"/>
            <mxPoint x="470" y="120" as="targetPoint"/>
          </mxGeometry>
        </mxCell>
        <mxCell id="aHJcTRQOH6mIRuyvJkER-20" value="" style="ellipse;whiteSpace=wrap;html=1;aspect=fixed;fillColor=#d5e8d4;strokeColor=#82b366;rotation=5;" parent="KOuEPaCOk-VeOU2HSNAt-1" vertex="1">
          <mxGeometry x="620" y="150" width="20.42" height="20.42" as="geometry"/>
        </mxCell>
        <mxCell id="aHJcTRQOH6mIRuyvJkER-21" value="&lt;font style=&quot;font-size: 16px&quot;&gt;`c_1^A`&lt;/font&gt;" style="text;html=1;strokeColor=none;fillColor=none;align=center;verticalAlign=middle;whiteSpace=wrap;rounded=0;fontColor=#000000;" parent="KOuEPaCOk-VeOU2HSNAt-1" vertex="1">
          <mxGeometry x="600.4200000000001" y="120" width="40" height="20" as="geometry"/>
        </mxCell>
        <mxCell id="aHJcTRQOH6mIRuyvJkER-22" value="&lt;font style=&quot;font-size: 16px&quot;&gt;`c_2^A`&lt;/font&gt;" style="text;html=1;strokeColor=none;fillColor=none;align=center;verticalAlign=middle;whiteSpace=wrap;rounded=0;fontColor=#000000;" parent="KOuEPaCOk-VeOU2HSNAt-1" vertex="1">
          <mxGeometry x="680.49" y="249.99999999999997" width="40" height="20" as="geometry"/>
        </mxCell>
        <mxCell id="aHJcTRQOH6mIRuyvJkER-23" style="edgeStyle=orthogonalEdgeStyle;rounded=0;orthogonalLoop=1;jettySize=auto;html=1;exitX=0.5;exitY=1;exitDx=0;exitDy=0;strokeColor=#B3B3B3;strokeWidth=3;fontColor=#000000;" parent="KOuEPaCOk-VeOU2HSNAt-1" source="aHJcTRQOH6mIRuyvJkER-21" target="aHJcTRQOH6mIRuyvJkER-21" edge="1">
          <mxGeometry relative="1" as="geometry"/>
        </mxCell>
        <mxCell id="aHJcTRQOH6mIRuyvJkER-24" value="" style="ellipse;whiteSpace=wrap;html=1;aspect=fixed;fillColor=#1ba1e2;strokeColor=#006EAF;rotation=5;fontColor=#ffffff;" parent="KOuEPaCOk-VeOU2HSNAt-1" vertex="1">
          <mxGeometry x="700.47" y="170.42" width="20" height="20" as="geometry"/>
        </mxCell>
        <mxCell id="aHJcTRQOH6mIRuyvJkER-25" value="" style="ellipse;whiteSpace=wrap;html=1;aspect=fixed;fillColor=#1ba1e2;strokeColor=#006EAF;rotation=5;fontColor=#ffffff;" parent="KOuEPaCOk-VeOU2HSNAt-1" vertex="1">
          <mxGeometry x="730" y="500" width="20" height="20" as="geometry"/>
        </mxCell>
        <mxCell id="aHJcTRQOH6mIRuyvJkER-27" value="" style="ellipse;whiteSpace=wrap;html=1;aspect=fixed;fillColor=#d5e8d4;strokeColor=#82b366;rotation=5;" parent="KOuEPaCOk-VeOU2HSNAt-1" vertex="1">
          <mxGeometry x="700.49" y="219.98000000000002" width="20" height="20" as="geometry"/>
        </mxCell>
        <mxCell id="aHJcTRQOH6mIRuyvJkER-28" value="&lt;div&gt;`n_1^{c_1^A} = n_0^{c_2^A}`&lt;/div&gt;" style="text;html=1;strokeColor=none;fillColor=none;align=center;verticalAlign=middle;whiteSpace=wrap;rounded=0;" parent="KOuEPaCOk-VeOU2HSNAt-1" vertex="1">
          <mxGeometry x="345" y="140" width="40" height="20" as="geometry"/>
        </mxCell>
        <mxCell id="aHJcTRQOH6mIRuyvJkER-31" value="&lt;div&gt;`n_1^{c_2^A}`&lt;/div&gt;" style="text;html=1;strokeColor=none;fillColor=none;align=center;verticalAlign=middle;whiteSpace=wrap;rounded=0;" parent="KOuEPaCOk-VeOU2HSNAt-1" vertex="1">
          <mxGeometry x="380" y="470" width="40" height="20" as="geometry"/>
        </mxCell>
        <mxCell id="aHJcTRQOH6mIRuyvJkER-34" value="" style="triangle;whiteSpace=wrap;html=1;strokeColor=#666666;strokeWidth=1;fillColor=#f5f5f5;fontColor=#333333;rotation=15;" parent="KOuEPaCOk-VeOU2HSNAt-1" vertex="1">
          <mxGeometry x="520" y="124" width="50" height="30" as="geometry"/>
        </mxCell>
        <mxCell id="aHJcTRQOH6mIRuyvJkER-37" value="" style="triangle;whiteSpace=wrap;html=1;strokeColor=#666666;strokeWidth=1;fillColor=#f5f5f5;fontColor=#333333;rotation=85;" parent="KOuEPaCOk-VeOU2HSNAt-1" vertex="1">
          <mxGeometry x="700.49" y="320" width="50" height="30" as="geometry"/>
        </mxCell>
        <mxCell id="aHJcTRQOH6mIRuyvJkER-38" value="&lt;div&gt;`n_0^{c_1^A}`&lt;/div&gt;" style="text;html=1;strokeColor=none;fillColor=none;align=center;verticalAlign=middle;whiteSpace=wrap;rounded=0;" parent="KOuEPaCOk-VeOU2HSNAt-1" vertex="1">
          <mxGeometry x="700.47" y="140" width="40" height="20" as="geometry"/>
        </mxCell>
        <mxCell id="aHJcTRQOH6mIRuyvJkER-39" value="&lt;div&gt;`n_0^{c_2^A}`&lt;/div&gt;" style="text;html=1;strokeColor=none;fillColor=none;align=center;verticalAlign=middle;whiteSpace=wrap;rounded=0;" parent="KOuEPaCOk-VeOU2HSNAt-1" vertex="1">
          <mxGeometry x="750" y="470" width="40" height="20" as="geometry"/>
        </mxCell>
        <mxCell id="aHJcTRQOH6mIRuyvJkER-53" value="" style="ellipse;whiteSpace=wrap;html=1;aspect=fixed;fillColor=#f5f5f5;strokeColor=#666666;rotation=5;fontColor=#333333;" parent="KOuEPaCOk-VeOU2HSNAt-1" vertex="1">
          <mxGeometry x="459.99999999999994" y="110" width="20" height="20" as="geometry"/>
        </mxCell>
      </root>
    </mxGraphModel>
  </diagram>
</mxfile>
